<?xml version="1.0" encoding="utf-8"?>
<!-- Generator: Adobe Illustrator 28.0.0, SVG Export Plug-In . SVG Version: 6.00 Build 0)  -->
<svg version="1.1" id="Layer_1" xmlns="http://www.w3.org/2000/svg" xmlns:xlink="http://www.w3.org/1999/xlink" x="0px" y="0px"
	 viewBox="0 0 59 33.6" style="enable-background:new 0 0 59 33.6;" xml:space="preserve">
<style type="text/css">
	.st0{fill:#FFFFFF;}
</style>
<g id="Group_102098" transform="translate(-16557 -14493)">
	<g id="Group_102097" transform="translate(16263 14484.715)">
		<g id="Group_24912" transform="translate(392.332 50.694)">
			<g id="Group_24885" transform="translate(0 0.177)">
				<path id="Path_120796" class="st0" d="M-61.6-32.7c1.2,1.3,1.8,3.2,1.8,5.4v10.8h-4.8v-10c0-2.7-1-4-3.1-4
					c-0.7,0-1.5,0.2-2.1,0.6c-0.6,0.4-1.1,0.9-1.4,1.6c-0.3,0.8-0.5,1.6-0.5,2.5v9.3h-4.8v-17.8h3.3l1,2.2c0.3-0.4,0.7-0.8,1.1-1.1
					c0.4-0.3,0.9-0.6,1.4-0.8c0.5-0.2,1-0.4,1.6-0.5c0.6-0.1,1.2-0.2,1.8-0.2C-64.4-34.7-62.8-34-61.6-32.7z"/>
			</g>
			<g id="Group_24886" transform="translate(50.287)">
				<path id="Path_120797" class="st0" d="M-89.8-23.9h-13.4c0.1,1.1,0.6,2.1,1.4,2.8c0.8,0.7,1.9,1,2.9,1c0.8,0,1.5-0.2,2.2-0.5
					c0.6-0.3,1.2-0.9,1.5-1.5h5.1c-1.2,3.8-4.8,6.4-8.8,6.3c-2.5,0.1-4.9-0.9-6.6-2.7c-1.7-1.8-2.7-4.2-2.6-6.7c0-1,0.1-2,0.4-3
					c0.3-0.9,0.7-1.8,1.3-2.6c0.5-0.8,1.2-1.4,2-2c0.8-0.6,1.6-1,2.5-1.3c1-0.3,2-0.5,3-0.5c1.7,0,3.3,0.4,4.8,1.2
					c1.4,0.8,2.5,2,3.3,3.4c0.8,1.4,1.1,3,1.1,4.7C-89.7-24.8-89.8-24.3-89.8-23.9z M-101.6-29.6c-0.8,0.6-1.3,1.5-1.5,2.5h8.6
					c-0.2-0.7-0.5-1.3-1-1.8c-0.4-0.5-0.9-0.9-1.5-1.1c-0.6-0.3-1.3-0.4-1.9-0.4C-99.9-30.5-100.8-30.2-101.6-29.6L-101.6-29.6z"/>
			</g>
		</g>
		<g id="Group_24913" transform="translate(334 48.285)">
			<path id="Path_120798" class="st0" d="M-30-33.1c-5.4,0-9.9,4.4-9.9,9.9c0,5.4,4.4,9.9,9.9,9.9c5.4,0,9.9-4.4,9.9-9.9
				C-20.2-28.6-24.6-33.1-30-33.1C-30-33.1-30-33.1-30-33.1z M-27.9-17.2c-0.1,0.1-0.2,0.1-0.3,0.1h0c-0.2,0-0.5,0-0.7,0h-1.8
				c-0.3,0-0.4-0.1-0.4-0.4v-1c0-2.6,0-3.2,0-6.1l-0.1,0c-0.1,0.1-0.3,0.1-0.4,0.2l0,0c-0.1,0-0.2,0.1-0.3,0.1c-0.1,0-0.2,0-0.2,0.1
				c-0.1,0-0.3,0.1-0.5,0.1h0c0,0-0.1,0-0.1,0l0,0h0c0,0-0.1,0-0.1,0c-0.1,0-0.2,0-0.3,0l-0.2,0c-0.1,0-0.2,0-0.3-0.1
				c-0.1-0.1-0.1-0.2-0.1-0.3c0-0.8,0-1.6,0-2.5c0-0.2,0.1-0.4,0.3-0.4c0,0,0,0,0,0c0.1,0,0.3,0,0.4-0.1l0.1,0
				c0.1,0,0.2-0.1,0.3-0.1l0,0l0.4-0.2c0.3-0.1,0.6-0.4,0.9-0.7c0.1-0.1,0.1-0.2,0.1-0.3c0-0.2,0.2-0.4,0.4-0.4c0.8,0,1.7,0,2.5,0
				c0.1,0,0.2,0,0.3,0.1c0.1,0.1,0.1,0.2,0.1,0.3v3.9c0,1.8,0,3.3,0,6v0.3c0,0.3,0,0.7,0,1C-27.8-17.4-27.8-17.3-27.9-17.2
				L-27.9-17.2z"/>
		</g>
	</g>
</g>
</svg>
