<?xml version="1.0" encoding="utf-8"?>
<!-- Generator: Adobe Illustrator 28.0.0, SVG Export Plug-In . SVG Version: 6.00 Build 0)  -->
<svg version="1.1" id="Layer_1" xmlns="http://www.w3.org/2000/svg" xmlns:xlink="http://www.w3.org/1999/xlink" x="0px" y="0px"
	 viewBox="0 0 69 24" style="enable-background:new 0 0 69 24;" xml:space="preserve">
<g id="Group_102098_00000032632690426123985830000018022798103471969415_" transform="translate(-16557 -14493)">
	<g id="Group_102097_00000035505505278147264430000006861634271883875773_" transform="translate(16263 14484.715)">
		<g id="Group_24912_00000154384556633453395600000003746620568365872054_" transform="translate(392.332 50.694)">
			<g id="Group_24885_00000070083720175250690230000012972566438021781128_" transform="translate(0 0.177)">
				<path id="Path_120796_00000114050802690274197410000012289264263340436361_" d="M-55.4-38.6c1.4,1.6,2.1,3.7,2.1,6.3v12.6H-59
					v-11.7c0-3.1-1.2-4.6-3.6-4.6c-0.9,0-1.7,0.2-2.5,0.7c-0.7,0.4-1.3,1.1-1.6,1.9c-0.4,0.9-0.6,1.9-0.6,2.9v10.9h-5.6v-20.7h3.8
					l1.1,2.6c0.4-0.5,0.8-0.9,1.3-1.3c0.5-0.4,1.1-0.7,1.6-1c0.6-0.3,1.2-0.5,1.9-0.6c0.7-0.1,1.4-0.2,2.1-0.2
					C-58.6-41-56.8-40.2-55.4-38.6z"/>
			</g>
			<g id="Group_24886_00000130647197760746131990000003085771957002718641_" transform="translate(50.287)">
				<path id="Path_120797_00000168083808105046958680000012101485300717489852_" d="M-79.9-28.4h-15.7c0.1,1.2,0.7,2.4,1.7,3.2
					c1,0.8,2.2,1.2,3.4,1.1c0.9,0,1.8-0.2,2.6-0.6c0.8-0.4,1.4-1,1.8-1.7h5.9c-1.4,4.5-5.6,7.5-10.3,7.4c-2.9,0.1-5.7-1.1-7.7-3.2
					c-2-2.1-3.1-4.9-3.1-7.8c0-1.2,0.2-2.4,0.5-3.5c0.3-1.1,0.8-2.1,1.5-3c0.6-0.9,1.4-1.7,2.3-2.3c0.9-0.7,1.9-1.2,3-1.5
					c1.1-0.4,2.3-0.5,3.5-0.5c2,0,3.9,0.5,5.6,1.5c1.6,0.9,2.9,2.3,3.8,4c0.9,1.7,1.3,3.6,1.3,5.5C-79.8-29.5-79.8-28.9-79.9-28.4z
					 M-93.7-35.1c-0.9,0.7-1.5,1.8-1.7,2.9h10c-0.2-0.8-0.6-1.5-1.1-2.1c-0.5-0.6-1.1-1-1.7-1.3c-0.7-0.3-1.5-0.5-2.2-0.5
					C-91.6-36.2-92.8-35.8-93.7-35.1L-93.7-35.1z"/>
			</g>
		</g>
		<g id="Group_24913_00000162336366255872607240000005822947448927558055_" transform="translate(334 48.285)">
			<path id="Path_120798_00000078752774115012089120000006152906375674720390_" d="M-28.3-39.5c-6.4,0-11.5,5.2-11.5,11.5
				c0,6.4,5.2,11.5,11.5,11.5c6.4,0,11.5-5.2,11.5-11.5C-16.8-34.4-22-39.5-28.3-39.5C-28.3-39.5-28.3-39.5-28.3-39.5z M-25.8-21
				c-0.1,0.1-0.2,0.1-0.3,0.1h0c-0.3,0-0.5,0-0.8,0h-2.1c-0.3,0-0.5-0.2-0.5-0.5v-1.2c0-3,0-3.8,0-7.1l-0.1,0
				c-0.2,0.1-0.3,0.2-0.5,0.2l0,0c-0.1,0-0.2,0.1-0.3,0.1c-0.1,0-0.2,0-0.3,0.1c-0.2,0-0.3,0.1-0.5,0.1h0c0,0-0.1,0-0.1,0l0,0h0
				c0,0-0.1,0-0.1,0c-0.1,0-0.2,0-0.3,0l-0.2,0c-0.1,0-0.3,0-0.3-0.1c-0.1-0.1-0.1-0.2-0.1-0.3c0-1,0-1.9,0-2.9
				c0-0.2,0.2-0.4,0.4-0.4c0,0,0,0,0,0c0.2,0,0.3,0,0.5-0.1l0.1,0c0.1,0,0.3-0.1,0.4-0.1l0,0l0.5-0.2c0.4-0.2,0.8-0.4,1-0.8
				c0.1-0.1,0.1-0.3,0.2-0.4c0-0.3,0.3-0.4,0.5-0.4c1,0,1.9,0,2.9,0c0.1,0,0.3,0,0.4,0.1c0.1,0.1,0.1,0.2,0.1,0.4v4.6
				c0,2.1,0,3.8,0,7v0.4c0,0.4,0,0.8,0,1.2C-25.7-21.2-25.7-21.1-25.8-21L-25.8-21z"/>
		</g>
	</g>
</g>
</svg>
